<svg xmlns="http://www.w3.org/2000/svg" viewBox="0 0 175.78 175.78"><defs><style>.cls-1{fill:#172032;}</style></defs><title>Asset 4</title><g id="Layer_2" data-name="Layer 2"><g id="Layer_1-2" data-name="Layer 1"><path class="cls-1" d="M87.89,175.78a87.89,87.89,0,1,1,87.89-87.89A88,88,0,0,1,87.89,175.78Zm0-162.58a74.69,74.69,0,1,0,74.69,74.69A74.78,74.78,0,0,0,87.89,13.2Z"/><path class="cls-1" d="M31.52,91.59V84.3A5.43,5.43,0,0,1,37,78.87H73.22a5.44,5.44,0,0,0,5.43-5.43V36.85a5.43,5.43,0,0,1,5.43-5.43H91.7a5.43,5.43,0,0,1,5.43,5.43V73.44a5.44,5.44,0,0,0,5.43,5.43h36.27a5.43,5.43,0,0,1,5.43,5.43v7.29A5.43,5.43,0,0,1,138.83,97H102.56a5.44,5.44,0,0,0-5.43,5.44v36.48a5.43,5.43,0,0,1-5.43,5.43H84.08a5.43,5.43,0,0,1-5.43-5.43V102.46A5.44,5.44,0,0,0,73.22,97H37A5.43,5.43,0,0,1,31.52,91.59Z"/></g></g></svg>